# xmcd
#
# Track frame offsets: 
#        150
#        22740
#        46782
#        64330
#        83450
#        106472
#        134430
#        160912
#        179900
#        201920
#        218355
#        239965
#        263195
#        285252
#
# Disc length: 4106 seconds
#
# Revision: 3
# Processed by: cddbd v1.5.2PL0 Copyright (c) Steve Scherf et al.
# Submitted via: ExactAudioCopyFreeDBPlugin 1.0
#
DISCID=c510080e
DTITLE=Chico Banks - Candy Lickin' Man
DYEAR=1997
DGENRE=Blues
TTITLE0=Red Dress
TTITLE1=Candy Lickin' Man
TTITLE2=Down The Road I Go
TTITLE3=It Must Be Love
TTITLE4=Angel Of Mercy
TTITLE5=Soul Serenade
TTITLE6=All Your Love
TTITLE7=Careless Things We Do
TTITLE8=Got To Be Some Changes Made
TTITLE9=You're Fine
TTITLE10=Groove Me
TTITLE11=The Sky Is Crying
TTITLE12=Truck Load Of Lovin'
TTITLE13=Call My Job
EXTD=
EXTT0=
EXTT1=
EXTT2=
EXTT3=
EXTT4=
EXTT5=
EXTT6=
EXTT7=
EXTT8=
EXTT9=
EXTT10=
EXTT11=
EXTT12=
EXTT13=
PLAYORDER=
